<?xml version="1.0" standalone="no"?>
<!DOCTYPE svg PUBLIC "-//W3C//DTD SVG 1.1//EN" "http://www.w3.org/Graphics/SVG/1.1/DTD/svg11.dtd">
<svg xmlns="http://www.w3.org/2000/svg" width="2560" height="1440" viewBox="0 0 2560 1440" fill="none">
<path fill-rule="evenodd" clip-rule="evenodd" d="M1539 939.054C1538.17 940.242 1535.6 943.872 1522.3 947.238C1523.85 973.671 1530.95 1087.09 1541.74 1126.06C1542.2 1127.62 1541.87 1129.27 1540.91 1130.52C1539.95 1131.74 1538.47 1132.5 1536.89 1132.5H1381.36C1378.55 1132.5 1376.34 1130.22 1376.34 1127.45C1376.08 991.491 1308.66 983.241 1305.62 982.944C1304.9 983.01 1235.27 990.798 1235.03 1127.45C1235.03 1130.22 1232.82 1132.5 1230.02 1132.5H1071.19C1069.64 1132.5 1068.12 1131.74 1067.2 1130.52C1066.24 1129.27 1065.88 1127.62 1066.37 1126.06C1077.16 1087.09 1084.26 973.671 1085.81 947.238C1072.57 943.896 1069.97 940.294 1069.1 939.08C1067.68 936.968 1067.96 934.137 1069.77 932.454C1070.3 931.992 1115.21 889.686 1125.77 826.293C1126.17 823.884 1128.31 822.102 1130.75 822.069C1133.2 822.069 1135.34 823.818 1135.74 826.227C1140.79 855.168 1152.17 879.72 1163.13 898.299L1195.86 866.85V774.318C1183.1 772.993 1180.78 770.812 1179.72 769.824C1179.7 769.804 1179.68 769.784 1179.66 769.764C1178.04 768.015 1177.78 765.309 1179.17 763.329C1179.18 763.308 1179.24 763.214 1179.34 763.048C1181.98 758.929 1212.92 710.613 1212.92 642.45C1212.92 639.645 1215.2 637.335 1217.97 637.335C1220.81 637.335 1223.02 639.645 1223.02 642.45C1223.02 704.754 1249.03 750.756 1255.4 761.118H1256.48V608.889C1242.46 606.117 1238.63 602.619 1237.01 600.21C1236.06 598.824 1235.86 596.844 1236.62 595.26C1237.08 594.369 1277.9 505.962 1288.33 374.259C1281.33 371.223 1276.65 364.458 1276.65 356.604C1276.65 347.859 1282.39 340.533 1290.34 338.19C1290.64 329.808 1290.77 321.261 1290.77 312.549C1290.77 309.744 1293.02 307.5 1295.85 307.5C1298.63 307.5 1300.9 309.744 1300.9 312.549C1300.9 321.261 1301.03 329.808 1301.36 338.19C1309.35 340.533 1315.06 347.925 1315.06 356.604C1315.06 364.392 1310.41 371.157 1303.48 374.16C1309.05 440.919 1322.75 495.732 1334.66 532.989C1340.34 519.36 1345.49 501.243 1345.49 480.189C1345.49 477.45 1347.73 475.107 1350.53 475.107C1353.27 475.107 1355.55 477.45 1355.55 480.189C1355.55 524.838 1383.96 556.353 1384.29 556.683C1386.14 558.762 1386.01 561.864 1384.03 563.745C1383.96 563.811 1379.21 568.002 1374.86 570.543V604.797C1374.86 604.797 1374.86 605.094 1374.76 605.49C1374.86 605.919 1374.86 606.546 1374.86 607.107C1374.86 622.221 1362.55 634.497 1347.47 634.497C1343.97 634.497 1340.47 633.771 1337.3 632.484V737.919H1374.59C1377 737.919 1379.08 739.668 1379.54 742.011C1389.89 798.72 1433.13 837.036 1435.27 838.928C1435.31 838.966 1435.34 838.99 1435.34 838.998C1437.39 840.681 1437.75 843.684 1436.14 845.796C1434.26 848.37 1430.56 849.129 1420.33 851.043C1418.71 851.307 1417.1 851.604 1415.61 851.901V935.391H1418.28C1418.45 935.094 1418.71 934.698 1419.04 934.368C1419.41 934.005 1461.25 889.884 1472.34 826.227C1472.77 823.818 1474.88 822.069 1477.35 822.069C1479.8 822.102 1481.91 823.884 1482.34 826.293C1492.68 888.564 1536.23 930.488 1538.21 932.39C1538.24 932.425 1538.26 932.446 1538.27 932.454C1540.15 934.137 1540.42 936.942 1539 939.054ZM1422.82 938.113C1423.5 938.977 1424.57 939.785 1426.14 940.539H1426.73C1425.13 939.781 1423.58 939.024 1422.82 938.113Z" fill="#fff"/>
</svg>